<?xml version="1.0" standalone="no"?><!DOCTYPE svg PUBLIC "-//W3C//DTD SVG 1.1//EN" "http://www.w3.org/Graphics/SVG/1.1/DTD/svg11.dtd"><svg t="1522618600864" class="icon" style="" viewBox="0 0 1024 1024" version="1.1" xmlns="http://www.w3.org/2000/svg" p-id="1914" xmlns:xlink="http://www.w3.org/1999/xlink" width="200" height="200"><defs><style type="text/css"></style></defs><path d="M914.033778 968.078222H109.966222a53.646222 53.646222 0 0 1-53.589333-53.646222V109.568a53.589333 53.589333 0 0 1 53.589333-53.646222h804.067556a53.646222 53.646222 0 0 1 53.589333 53.646222v804.864a53.646222 53.646222 0 0 1-53.589333 53.646222zM284.444444 284.444444a56.888889 56.888889 0 1 0 56.888889 56.888889 56.888889 56.888889 0 0 0-56.888889-56.888889z m0 170.666667a56.888889 56.888889 0 1 0 56.888889 56.888889 56.888889 56.888889 0 0 0-56.888889-56.888889z m0 170.666667a56.888889 56.888889 0 1 0 56.888889 56.888889 56.888889 56.888889 0 0 0-56.888889-56.888889z m455.111112-341.333334H455.111111a56.888889 56.888889 0 0 0 0 113.777778h284.444445a56.888889 56.888889 0 0 0 0-113.777778z m0 170.666667H455.111111a56.888889 56.888889 0 0 0 0 113.777778h284.444445a56.888889 56.888889 0 0 0 0-113.777778z m0 170.666667H455.111111a56.888889 56.888889 0 0 0 0 113.777778h284.444445a56.888889 56.888889 0 0 0 0-113.777778z" fill="#13227a" p-id="1915"></path></svg>